<svg width="1024" height="1024" viewBox="0 0 1024 1024" fill="none" xmlns="http://www.w3.org/2000/svg">
<rect width="1024" height="1024" fill="white"/>
<rect x="96" y="96" width="384" height="384" fill="#F0DB4F"/>
<path d="M263.057 279.455H299.534V401.159C299.534 412.409 297.006 422.182 291.949 430.477C286.949 438.773 279.989 445.165 271.068 449.653C262.148 454.142 251.778 456.386 239.96 456.386C229.449 456.386 219.903 454.54 211.324 450.847C202.801 447.097 196.04 441.415 191.04 433.801C186.04 426.131 183.568 416.5 183.625 404.909H220.358C220.472 409.511 221.409 413.46 223.17 416.756C224.989 419.994 227.46 422.494 230.585 424.256C233.767 425.96 237.517 426.812 241.835 426.812C246.381 426.812 250.216 425.847 253.341 423.915C256.523 421.926 258.938 419.028 260.585 415.222C262.233 411.415 263.057 406.727 263.057 401.159V279.455ZM424.733 329.653C424.051 322.778 421.125 317.437 415.955 313.631C410.784 309.824 403.767 307.92 394.903 307.92C388.881 307.92 383.795 308.773 379.648 310.477C375.5 312.125 372.318 314.426 370.102 317.381C367.943 320.335 366.864 323.688 366.864 327.438C366.75 330.562 367.403 333.29 368.824 335.619C370.301 337.949 372.318 339.966 374.875 341.67C377.432 343.318 380.386 344.767 383.739 346.017C387.091 347.21 390.67 348.233 394.477 349.085L410.159 352.835C417.773 354.54 424.761 356.812 431.125 359.653C437.489 362.494 443 365.989 447.659 370.136C452.318 374.284 455.926 379.17 458.483 384.795C461.097 390.42 462.432 396.869 462.489 404.142C462.432 414.824 459.705 424.085 454.307 431.926C448.966 439.71 441.239 445.761 431.125 450.08C421.068 454.341 408.938 456.472 394.733 456.472C380.642 456.472 368.369 454.312 357.915 449.994C347.517 445.676 339.392 439.284 333.54 430.818C327.744 422.295 324.705 411.756 324.42 399.199H360.131C360.528 405.051 362.205 409.937 365.159 413.858C368.17 417.722 372.176 420.648 377.176 422.636C382.233 424.568 387.943 425.534 394.307 425.534C400.557 425.534 405.983 424.625 410.585 422.807C415.244 420.989 418.852 418.46 421.409 415.222C423.966 411.983 425.244 408.261 425.244 404.057C425.244 400.136 424.08 396.841 421.75 394.17C419.477 391.5 416.125 389.227 411.693 387.352C407.318 385.477 401.949 383.773 395.585 382.239L376.58 377.466C361.864 373.886 350.244 368.29 341.722 360.676C333.199 353.062 328.966 342.807 329.023 329.909C328.966 319.341 331.778 310.108 337.46 302.21C343.199 294.312 351.068 288.148 361.068 283.716C371.068 279.284 382.432 277.068 395.159 277.068C408.114 277.068 419.42 279.284 429.08 283.716C438.795 288.148 446.352 294.312 451.75 302.21C457.148 310.108 459.932 319.256 460.102 329.653H424.733Z" fill="black"/>
<mask id="mask0_1_2" style="mask-type:alpha" maskUnits="userSpaceOnUse" x="505" y="483" width="416" height="474">
<path d="M701 486.928C708.426 482.641 717.574 482.641 725 486.928L908.846 593.072C916.272 597.359 920.846 605.282 920.846 613.856V826.144C920.846 834.718 916.272 842.641 908.846 846.928L725 953.072C717.574 957.359 708.426 957.359 701 953.072L517.154 846.928C509.728 842.641 505.154 834.718 505.154 826.144V613.856C505.154 605.282 509.728 597.359 517.154 593.072L701 486.928Z" fill="#D9D9D9"/>
</mask>
<g mask="url(#mask0_1_2)">
<path d="M515.5 1001C511.5 1001 506.833 893.667 505 840L713 719.5L921 840L923.5 1001H515.5Z" fill="#004482"/>
<path d="M921 600L505 840C457.5 752.833 362.5 576.2 362.5 567C362.5 557.8 557.5 422.167 655 355.5L921 600Z" fill="#659AD2"/>
<path d="M713 570C795.843 570 863 637.157 863 720C863 802.843 795.843 870 713 870C630.157 870 563 802.843 563 720C563 637.157 630.157 570 713 570ZM713 647C668.817 647 633 682.817 633 727C633 771.183 668.817 807 713 807C757.183 807 793 771.183 793 727C793 682.817 757.183 647 713 647Z" fill="white"/>
<path d="M921 840V600L713 719.5L921 840Z" fill="#00599C"/>
</g>
<path d="M180 624C180 800 326.667 844 400 844" stroke="black" stroke-width="32" stroke-linecap="round"/>
<path d="M328 772.5L401 845.5L328 887.647" stroke="black" stroke-width="32" stroke-linecap="round" stroke-linejoin="round"/>
<path d="M844 399.647C844 223.647 697.333 179.647 624 179.647" stroke="black" stroke-width="32" stroke-linecap="round"/>
<path d="M696 251.147L623 178.147L696 136" stroke="black" stroke-width="32" stroke-linecap="round" stroke-linejoin="round"/>
</svg>
